<?xml version="1.0" encoding="utf-8"?><svg fill="none" viewBox="0 0 350 350" xmlns="http://www.w3.org/2000/svg"><defs /><g id="Bad"><g transform="translate(56.339,243)"><g transform="rotate(16)"><animateTransform repeatCount="indefinite" type="rotate" attributeName="transform" dur="1s" begin="0s" calcMode="spline" values="16; -4; 16" keyTimes="0; 0.408; 1" keySplines="0.333 0 0.833 0.833; 0.167 0.167 0.667 1" fill="freeze" /><g transform="scale(1,1) translate(110.145,-37.968)"><g id="Group 9"><path fill="#277c5d" fill-opacity="1" d="M41.126,35.863L41.126,40.073L-55.375,40.073L-55.375,35.863L41.126,35.863Z" /></g><g id="Group 8"><g id="Group 11"><path stroke-linejoin="miter" stroke-linecap="butt" stroke-width="0.25" stroke-opacity="1" stroke="#00c885" d="M53.133,27.691L53.133,48.628" /></g><g id="Group 10"><path stroke-linejoin="miter" stroke-linecap="butt" stroke-width="0.25" stroke-opacity="1" stroke="#00c885" d="M65.389,24.883L65.389,51.564" /></g><g id="Group 9"><path stroke-linejoin="miter" stroke-linecap="butt" stroke-width="0.25" stroke-opacity="1" stroke="#00c885" d="M77.644,23.862L77.644,52.074" /></g><g id="Group 8"><path stroke-linejoin="miter" stroke-linecap="butt" stroke-width="0.25" stroke-opacity="1" stroke="#00c885" d="M90.665,24.883L90.665,51.564" /></g><g id="Group 7"><path stroke-linejoin="miter" stroke-linecap="butt" stroke-width="0.25" stroke-opacity="1" stroke="#00c885" d="M103.304,24.883L103.304,50.926" /></g><g id="Group 6"><path stroke-linejoin="miter" stroke-linecap="butt" stroke-width="0.25" stroke-opacity="1" stroke="#00c885" d="M116.07,27.691L116.07,48.628" /></g><g id="Group 5"><path stroke-linejoin="miter" stroke-linecap="butt" stroke-width="0.25" stroke-opacity="1" stroke="#00c885" d="M61.559,46.585L116.195,47.734" /></g><g id="Group 4"><path stroke-linejoin="miter" stroke-linecap="butt" stroke-width="0.25" stroke-opacity="1" stroke="#00c885" d="M43.156,42.836L123.693,43.47" /></g><g id="Group 3"><path stroke-linejoin="miter" stroke-linecap="butt" stroke-width="0.25" stroke-opacity="1" stroke="#00c885" d="M40.495,37.138L127.176,38.223" /></g><g id="Group 2"><path stroke-linejoin="miter" stroke-linecap="butt" stroke-width="0.25" stroke-opacity="1" stroke="#00c885" d="M45.279,32.133L124.152,33.329" /></g><g id="Group 1"><path stroke-linejoin="miter" stroke-linecap="butt" stroke-width="0.25" stroke-opacity="1" stroke="#00c885" d="M58.448,27.412L112.556,28.234" /></g></g><g id="Group 7"><path fill="#49685c" fill-opacity="1" d="M41.126,41.128L34.527,40.074L34.527,35.862L41.126,34.809L41.126,41.128Z" /></g><g id="Group 6"><path stroke-linejoin="miter" stroke-linecap="butt" stroke-width="4" stroke-opacity="1" stroke="#00c885" d="M127.176,38.223C127.176,45.591,107.771,51.564,83.835,51.564C59.899,51.564,40.495,45.591,40.495,38.223C40.495,30.855,59.899,24.883,83.835,24.883C107.771,24.883,127.176,30.855,127.176,38.223Z" /></g><g id="Group 5"><path fill="#00c885" fill-opacity="1" d="M-41.585,35.643L-41.585,40.073L-55.375,43.373L-55.375,32.513L-41.585,35.643Z" /></g><g id="Group 4"><path fill="#068456" fill-opacity="1" d="M-55.375,32.513L-55.375,43.373L-60.225,44.523L-60.225,31.413L-55.375,32.513Z" /></g><g id="Group 3"><path fill="#00c885" fill-opacity="1" d="M-55.375,43.373L-60.195,44.523L-60.225,44.523L-55.375,43.373Z" /></g><g id="Group 2"><path fill="#068456" fill-opacity="1" d="M-110.145,33.614L-110.145,42.322C-110.145,43.538,-109.16,44.523,-107.944,44.523L-102.532,44.523L-102.532,31.413L-107.944,31.413C-109.16,31.413,-110.145,32.398,-110.145,33.614Z" /></g><g id="Group 1"><path fill="#00c885" fill-opacity="1" d="M-60.225,31.413L-102.532,31.413L-102.532,44.523L-60.225,44.523L-60.225,31.413Z" /></g></g></g></g></g><g id="Father"><g transform="translate(253.32,29.394)"><animateTransform repeatCount="indefinite" type="translate" attributeName="transform" dur="1s" begin="0s" calcMode="spline" values="253.32 29.394; 253.32 230.394; 253.32 28.394" keyTimes="0; 0.408; 1" keySplines="0 0 1 1; 0 0 1 1" fill="freeze" /><g transform="rotate(0)"><animateTransform repeatCount="indefinite" type="rotate" attributeName="transform" dur="0.633s" begin="0s" calcMode="spline" values="0; -180; -178; 182; 2" keyTimes="0; 0.129; 0.632; 0.645; 1" keySplines="0 0 1 1; 0 0 1 1; 0 0 1 1; 0 0 1 1" fill="freeze" /><g transform="scale(1,1) translate(-56.82,29.509)"><g id="Group 3"><g id="Group 16"><path stroke-linejoin="miter" stroke-linecap="butt" stroke-width="0.5" stroke-opacity="1" stroke="#000000" d="M52.942,-17.062L40.686,7.831" /></g><g id="Group 15"><path stroke-linejoin="miter" stroke-linecap="butt" stroke-width="0.5" stroke-opacity="1" stroke="#000000" d="M54.474,-16.775L46.814,10.512" /></g><g id="Group 14"><path stroke-linejoin="miter" stroke-linecap="butt" stroke-width="0.5" stroke-opacity="1" stroke="#000000" d="M55.718,-17.254L53.516,11.948" /></g><g id="Group 13"><path stroke-linejoin="miter" stroke-linecap="butt" stroke-width="0.5" stroke-opacity="1" stroke="#000000" d="M57.442,-17.158L59.931,11.374" /></g><g id="Group 12"><path stroke-linejoin="miter" stroke-linecap="butt" stroke-width="0.5" stroke-opacity="1" stroke="#000000" d="M59.165,-17.349L66.633,10.417" /></g><g id="Group 11"><path stroke-linejoin="miter" stroke-linecap="butt" stroke-width="0.5" stroke-opacity="1" stroke="#000000" d="M60.218,-16.966L73.048,8.597" /></g><g id="Group 10"><path stroke-linejoin="miter" stroke-linecap="butt" stroke-width="0.5" stroke-opacity="1" stroke="#000000" d="M46.814,10.512C46.052,12.059,43.98,12.733,42.433,11.971C40.886,11.209,40.013,9.234,40.775,7.687" /></g><g id="Group 9"><path stroke-linejoin="miter" stroke-linecap="butt" stroke-width="0.5" stroke-opacity="1" stroke="#000000" d="M53.529,11.78C53.063,13.44,51.062,14.361,49.402,13.895C47.742,13.429,46.522,11.646,46.988,9.986" /></g><g id="Group 8"><path stroke-linejoin="miter" stroke-linecap="butt" stroke-width="0.5" stroke-opacity="1" stroke="#000000" d="M59.906,11.083C60.17,12.787,59.05,13.994,57.346,14.258C55.642,14.522,53.793,13.405,53.529,11.701" /></g><g id="Group 7"><path stroke-linejoin="miter" stroke-linecap="butt" stroke-width="0.5" stroke-opacity="1" stroke="#000000" d="M66.594,10.271C66.858,11.975,65.465,13.305,63.761,13.569C62.057,13.833,60.208,12.716,59.944,11.012" /></g><g id="Group 6"><path stroke-linejoin="miter" stroke-linecap="butt" stroke-width="0.5" stroke-opacity="1" stroke="#000000" d="M73.052,8.55C73.5,10.215,72.26,11.689,70.595,12.137C68.93,12.585,66.971,11.675,66.523,10.01" /></g><g id="Group 5"><path stroke-linejoin="miter" stroke-linecap="butt" stroke-width="0.5" stroke-opacity="1" stroke="#000000" d="M41.481,6.218C41.481,6.218,42.506,10.609,57.011,9.986C71.516,9.363,71.854,6.218,71.854,6.218" /></g><g id="Group 4"><path stroke-linejoin="miter" stroke-linecap="butt" stroke-width="0.5" stroke-opacity="1" stroke="#000000" d="M70.119,2.761C70.119,2.761,68.118,5.629,57.059,5.055C46,4.481,44.172,4.501,42.956,3.222" /></g><g id="Group 3"><path stroke-linejoin="miter" stroke-linecap="butt" stroke-width="0.5" stroke-opacity="1" stroke="#000000" d="M45.848,-2.653C45.848,-2.653,47.846,-1.169,56.737,-1.36C65.628,-1.551,66.208,-1.696,67.402,-2.653" /></g><g id="Group 2"><path stroke-linejoin="miter" stroke-linecap="butt" stroke-width="0.5" stroke-opacity="1" stroke="#000000" d="M64.597,-8.241C64.597,-8.241,51.294,-6.649,48.599,-8.241" /></g><g id="Group 1"><path stroke-linejoin="miter" stroke-linecap="butt" stroke-width="0.5" stroke-opacity="1" stroke="#000000" d="M51.669,-14.477C51.669,-14.477,57.691,-13.615,61.468,-14.477" /></g></g><g id="Group 2"><path fill="#545454" fill-opacity="1" d="M61.272,-16.392L51.793,-16.392L51.793,-24.77C51.793,-27.387,53.915,-29.509,56.532,-29.509L56.532,-29.509C59.149,-29.509,61.272,-27.387,61.272,-24.77L61.272,-16.392Z" /></g><g id="Group 1"><path fill="#eaeaea" fill-opacity="1" d="M61.846,-16.392L51.314,-16.392L51.314,-21.69C51.314,-21.937,51.514,-22.137,51.761,-22.137L61.399,-22.137C61.646,-22.137,61.846,-21.937,61.846,-21.69L61.846,-16.392Z" /></g></g></g></g></g></svg>